<?xml version="1.0" encoding="iso-8859-1"?>
<!-- Generator: Adobe Illustrator 18.1.1, SVG Export Plug-In . SVG Version: 6.00 Build 0)  -->
<svg version="1.1" id="Capa_1" xmlns="http://www.w3.org/2000/svg" xmlns:xlink="http://www.w3.org/1999/xlink" x="0px" y="0px"
	 viewBox="0 0 478.174 478.174" style="enable-background:new 0 0 478.174 478.174;" xml:space="preserve">
<g>
	<path id="Playstation_2_" d="M257.399,425.043l-72.96-31.3V53.131c0,0,158.631,26.618,180.427,92.804
		c21.796,65.907-12.233,108.683-24.068,109.998c-33.472,3.367-46.083-17.453-46.083-17.453V131.968l-36.101-15.022L257.399,425.043z
		 M276.446,378.203v39.907c0,0,171.84-55.646,197.103-77.144c25.283-21.219-59.253-74.733-104.618-64.114
		c0,0-48.135,2.311-91.967,21.478c-0.418,0.08,0,35.663,0,35.663l110.994-25.861l39.05,17.333L276.446,378.203z M166.049,375.314
		c0,0-22.414,11.536-72.402,10.958c-49.948-0.578-94.278-14.584-93.641-44.569c0.538-30.224,82.722-63.317,165.505-77.004v42.138
		l-87.942,23.271c0,0-15.042,19.147,5.14,19.665c45.983,1.335,83.978-11.117,83.978-11.117L166.049,375.314z"/>
</g>
<g>
</g>
<g>
</g>
<g>
</g>
<g>
</g>
<g>
</g>
<g>
</g>
<g>
</g>
<g>
</g>
<g>
</g>
<g>
</g>
<g>
</g>
<g>
</g>
<g>
</g>
<g>
</g>
<g>
</g>
</svg>
